<svg width="54" height="59" viewBox="0 0 54 59" fill="none" xmlns="http://www.w3.org/2000/svg">
<g clip-path="url(#clip0_625_1772)">
<path d="M24.8143 28.0342L0.220215 53.8293C0.496404 54.8091 0.992725 55.7128 1.67124 56.4712C2.34975 57.2295 3.19249 57.8226 4.13503 58.2049C5.07758 58.5873 6.09498 58.7489 7.10945 58.6773C8.12393 58.6057 9.10863 58.3029 9.98828 57.7919L37.6613 42.0142L24.8143 28.0342Z" fill="#EA4335"/>
<path d="M49.6829 23.6489L37.7161 16.7871L24.2461 28.6203L37.7709 41.9765L49.6465 35.1883C50.6986 34.6368 51.5798 33.8076 52.1946 32.7905C52.8094 31.7735 53.1345 30.6073 53.1345 29.4185C53.1345 28.2297 52.8094 27.0635 52.1946 26.0465C51.5798 25.0294 50.6986 24.2002 49.6465 23.6487L49.6829 23.6489Z" fill="#FBBC04"/>
<path d="M0.220075 4.88086C0.071504 5.43105 -0.00249581 5.99874 6.42109e-05 6.56867V52.1409C0.00153124 52.7107 0.0754627 53.2779 0.220075 53.8289L25.6573 28.6944L0.220075 4.88086Z" fill="#4285F4"/>
<path d="M24.9976 29.3542L37.7163 16.7869L10.08 0.935656C9.04021 0.326066 7.8576 0.00322596 6.65262 1.27433e-05C3.66234 -0.00580516 1.03342 1.98101 0.220215 4.86191L24.9976 29.3542Z" fill="#34A853"/>
</g>
<defs>
<clipPath id="clip0_625_1772">
<rect width="53.1635" height="58.7705" fill="white"/>
</clipPath>
</defs>
</svg>
