<svg width="53" height="61" viewBox="0 0 53 61" fill="none" xmlns="http://www.w3.org/2000/svg">
<path d="M50.818 19.9511C46.2225 23.204 43.9248 27.1185 43.9248 31.6947C43.9248 37.1741 46.7647 41.3795 52.4445 44.3108C50.9208 48.7323 48.7118 52.5774 45.8175 55.8461C42.9266 59.1166 40.287 60.7527 37.8988 60.7545C36.7723 60.7509 35.2346 60.3793 33.2857 59.6394L32.3552 59.2756C30.4467 58.5358 28.7596 58.1641 27.2939 58.1606C25.9109 58.1606 24.3952 58.4505 22.7468 59.0305L21.5737 59.4522L20.0975 60.0585C18.9342 60.5225 17.7594 60.7545 16.5731 60.7545C13.7789 60.7545 10.6974 58.4558 7.32852 53.8586C2.47116 47.2737 0.042482 40.0975 0.042482 32.33C0.0407246 26.8101 1.55557 22.3639 4.58703 18.9916C7.61848 15.6174 11.6323 13.9303 16.6285 13.9303C18.5001 13.9303 20.2399 14.273 21.869 14.9531L22.984 15.4065L24.157 15.8889C25.2009 16.3283 26.0445 16.5479 26.6877 16.5479C27.5066 16.5515 28.4204 16.3617 29.4291 15.9786L30.9581 15.3723L32.1074 14.9505C33.935 14.2897 35.9534 13.9593 38.1624 13.9593C43.4116 13.9593 47.6293 15.9575 50.8154 19.9537L50.818 19.9511ZM38.4154 0.0146484C38.4717 0.717595 38.5007 1.25974 38.5024 1.64109C38.5024 5.11364 37.2389 8.16003 34.7118 10.7803C30.9211 14.7106 29.242 14.708 25.8889 14.708C25.8081 14.1505 25.757 13.5891 25.736 13.0262C25.736 10.0738 26.9108 7.30332 29.2604 4.71472C31.6065 2.12085 34.3269 0.604245 37.4216 0.164904C37.6413 0.126242 37.9726 0.0761562 38.4154 0.0146484Z" fill="white"/>
</svg>
